<svg xmlns="http://www.w3.org/2000/svg" version="1.1" xmlns:xlink="http://www.w3.org/1999/xlink" xmlns:svgjs="http://svgjs.dev/svgjs" viewBox="0 0 800 800" opacity="1"><defs><symbol id="bbburst-shape-1" viewBox="0 0 194 167"><path d="m97 0 96.129 166.5H.871L97 0Z"></path></symbol><symbol id="bbburst-shape-2" viewBox="0 0 126 115"><path d="m63 0 62.77 43.877-23.976 70.996H24.206L.23 43.877 63 0Z"></path></symbol><symbol id="bbburst-shape-3" viewBox="0 0 131 127"><path d="m66 0 66 63.5L66 127 0 63.5 66 0Z"></path></symbol><symbol id="bbburst-shape-4" viewBox="0 0 149 143"><path d="M71.647 2.781c.898-2.764 4.808-2.764 5.706 0l15.445 47.534a3 3 0 0 0 2.853 2.073h49.98c2.906 0 4.115 3.719 1.764 5.427L106.96 87.193a2.999 2.999 0 0 0-1.09 3.354l15.445 47.534c.898 2.764-2.266 5.062-4.617 3.354l-40.435-29.378a3 3 0 0 0-3.526 0l-40.435 29.378c-2.351 1.708-5.515-.59-4.617-3.354L43.13 90.547a3 3 0 0 0-1.09-3.354L1.605 57.815c-2.35-1.708-1.142-5.427 1.764-5.427h49.98a3 3 0 0 0 2.853-2.073L71.647 2.781Z"></path></symbol><symbol id="bbburst-shape-5" viewBox="0 0 145 145"><circle cx="72.5" cy="72.5" r="72.5"></circle></symbol><symbol id="bbburst-shape-6" viewBox="0 0 133 116"><path d="M59.7487 10.2513c-13.6683-13.66839-35.8291-13.66839-49.4974 0-13.66839 13.6683-13.66839 35.8291 0 49.4974l49.4974-49.4974ZM66.5 66.5 41.7513 91.2487 66.5 115.997l24.7487-24.7483L66.5 66.5Zm56.249-6.7513c13.668-13.6683 13.668-35.8291 0-49.4974-13.669-13.66839-35.8294-13.66839-49.4977 0l49.4977 49.4974Zm-112.4977 0 31.5 31.5 49.4974-49.4974-31.5-31.5-49.4974 49.4974Zm80.9974 31.5 31.5003-31.5-49.4977-49.4974-31.5 31.5 49.4974 49.4974Z"></path></symbol><symbol id="bbburst-shape-7" viewBox="0 0 139 124"><path fill-rule="evenodd" clip-rule="evenodd" d="M70.1641 15.0917C54.6093.764854 37.8293-2.10782 24.4032 2.82615 10.3804 7.97941.763366 21.4591 1.00047 37.0608c.1068 7.0273 2.86132 13.7317 7.0039 20.2001C12.1442 63.7249 17.853 70.2322 24.25 76.9024c3.8209 3.9842 7.8871 8.0312 12.0767 12.201h.0001c10.0335 9.9862 20.7748 20.6766 30.5497 32.8956 1.38 1.725 3.8972 2.005 5.6223.624.6706-.536 1.1228-1.244 1.3439-2.011 9.5768-11.748 20.0328-22.0735 29.8163-31.7351 4.19-4.1373 8.256-8.1528 12.078-12.1062 6.396-6.6176 12.106-13.0752 16.247-19.4911 4.144-6.4196 6.905-13.0811 7.012-20.0691.237-15.5124-9.399-28.8902-23.411-33.99923-13.32-4.85681-29.9542-2.08621-45.4209 11.88043Zm-3.7351 7.4919C52.1278 8.44857 37.6826 6.46918 27.1626 10.3352 16.2859 14.3323 8.8148 24.7824 8.99955 36.9392c.07575 4.9844 2.03755 10.2234 5.74165 16.0072 3.707 5.7881 8.9752 11.8418 15.2827 18.4187 3.5798 3.7328 7.4978 7.6329 11.6 11.7163 9.0476 9.0063 18.9911 18.9046 28.1786 29.8666 9.2999-11.068 19.4036-21.0473 28.5839-30.1144l.0007-.0006c4.1019-4.0508 8.0189-7.9196 11.5979-11.6222 6.307-6.5252 11.573-12.5298 15.278-18.2697 3.703-5.7362 5.658-10.924 5.734-15.8531.184-12.0276-7.267-22.3914-18.153-26.3608-10.71-3.90518-25.4722-1.80041-40.0023 12.867-1.5547 1.5694-4.0874 1.5813-5.6568.0265-.3146-.3116-.5666-.6625-.7559-1.0371Z"></path></symbol><symbol id="bbburst-shape-8" viewBox="0 0 87 168"><path d="m12 12 31.2546 18.0749c16.4102 9.4902 20.014 31.6325 7.4603 45.8369L36.3296 92.1884c-12.5684 14.2206-8.9394 36.3916 7.5068 45.8636L75 156" stroke-width="14" stroke-linecap="round" stroke-linejoin="round"></path></symbol><symbol id="bbburst-shape-9" viewBox="0 0 182 172"><path d="M13.5809 69.845 91 13.5967l77.419 56.2483-29.571 91.012H43.1524L13.5809 69.845Z" stroke-width="22"></path></symbol><symbol id="bbburst-shape-10" viewBox="0 0 145 145"><circle cx="72.5" cy="72.5" r="61.5" fill="none" stroke-width="22"></circle></symbol><symbol id="bbburst-shape-11" viewBox="0 0 194 167"><path d="M10.398 161 97 11l86.603 150H10.397Z" stroke-width="11"></path></symbol><symbol id="bbburst-shape-12" viewBox="0 0 170 151"><path d="M69.3728 54.2122 85 10.0031l15.627 44.2091c1.413 3.9958 5.19 6.6672 9.428 6.6673h49.312l-39.149 26.1447c-3.803 2.5401-5.399 7.3367-3.875 11.6488l15.179 42.94-40.9683-27.36c-3.3621-2.245-7.7453-2.245-11.1074 0l-40.9682 27.36 15.1785-42.94c1.5243-4.3121-.0712-9.1087-3.8746-11.6488L10.6333 60.8795h49.3112c4.2381-.0001 8.0159-2.6715 9.4283-6.6673Z" stroke-width="12"></path></symbol><symbol id="bbburst-shape-13" viewBox="0 0 159 159"><path stroke-width="22" d="M11 11h137v137H11z"></path></symbol><symbol id="bbburst-shape-14" viewBox="0 0 185 109"><path d="M168 16.5C168 58.1975 134.197 92 92.5 92 50.8025 92 17 58.1975 17 16.5" stroke-width="33" stroke-linecap="round"></path></symbol></defs><use xlink:href="#bbburst-shape-11" width="33.238274476600985" opacity="0.2903952014927276" transform="matrix(0.9646221139603679,0.2636364490328129,-0.2636364490328129,0.9646221139603679,673.6585289451531,6.441938269057175)" fill="none" stroke="#00a19d"></use><use xlink:href="#bbburst-shape-10" width="22.92474239039196" opacity="0.5011853305636464" transform="matrix(0.9438474309470227,0.3303816385556333,-0.3303816385556333,0.9438474309470227,558.7835627196271,178.9786313927837)" fill="none" stroke="#ff5c58"></use><use xlink:href="#bbburst-shape-13" width="16.893436927026006" opacity="0.8286848439153036" transform="matrix(0.9944177258964185,0.10551486351692554,-0.10551486351692554,0.9944177258964185,136.1449381883549,263.9527721874327)" fill="none" stroke="#2c2891"></use><use xlink:href="#bbburst-shape-8" width="10.709189096395777" opacity="0.8856099756405278" transform="matrix(0.9992072799951767,-0.039809692345466066,0.039809692345466066,0.9992072799951767,24.470768785925532,295.68526002926757)" fill="none" stroke="#2c2891"></use><use xlink:href="#bbburst-shape-2" width="7.460548922052016" opacity="0.924990916473051" transform="matrix(0.9202822872736574,0.3912550469072133,-0.3912550469072133,0.9202822872736574,222.22489398749786,401.3856140225633)" fill="#ffbd9b"></use><use xlink:href="#bbburst-shape-9" width="41.113655135080876" opacity="0.12112201157905134" transform="matrix(0.9871100744891194,0.1600428094045004,-0.1600428094045004,0.9871100744891194,665.5626228231607,-219.53556226157067)" fill="none" stroke="#ffa6d5"></use><use xlink:href="#bbburst-shape-2" width="19.110255156275844" opacity="0.5800755353609882" transform="matrix(0.8597384688942222,-0.5107345348646579,0.5107345348646579,0.8597384688942222,179.14264560618068,309.50179281237644)" fill="#ffa6d5"></use><use xlink:href="#bbburst-shape-9" width="11.43136995915624" opacity="0.7646558420005384" transform="matrix(0.8337778735396751,0.5521000431041981,-0.5521000431041981,0.8337778735396751,442.32578096531995,398.3349045464042)" fill="none" stroke="#00a19d"></use><use xlink:href="#bbburst-shape-14" width="33.81363157189733" opacity="0.42637457278462143" transform="matrix(0.9955068745451212,-0.09468929576992448,0.09468929576992448,0.9955068745451212,-22.996138105496943,-169.3048712100868)" fill="none" stroke="#ffa6d5"></use><use xlink:href="#bbburst-shape-4" width="25.119199897466707" opacity="0.4752316322251324" transform="matrix(0.9977501497827029,-0.06704206596304947,0.06704206596304947,0.9977501497827029,208.80396654375159,-60.623760630888)" fill="#ffa6d5"></use><use xlink:href="#bbburst-shape-1" width="14.143885509261308" opacity="0.7539852914938949" transform="matrix(0.8953568761050216,0.44534937342659076,-0.44534937342659076,0.8953568761050216,300.8521349649793,229.27548775727246)" fill="#ffbd9b"></use><use xlink:href="#bbburst-shape-10" width="24.10894326088036" opacity="0.49798989382668823" transform="matrix(0.9827799828585176,0.18477961276237095,-0.18477961276237095,0.9827799828585176,466.9453472875548,107.8676842350074)" fill="none" stroke="#ffa6d5"></use><use xlink:href="#bbburst-shape-11" width="19.878854653836783" opacity="0.6553568783447692" transform="matrix(0.9992916571114354,-0.037632220602582325,0.037632220602582325,0.9992916571114354,148.45646238780182,102.58686970664985)" fill="none" stroke="#2c2891"></use><use xlink:href="#bbburst-shape-14" width="13.425782692962912" opacity="0.8479572000292858" transform="matrix(0.9987685590743266,0.04961214976790914,-0.04961214976790914,0.9987685590743266,158.4777134654762,355.52604762368964)" fill="none" stroke="#ffa6d5"></use><use xlink:href="#bbburst-shape-2" width="19.950846482640824" opacity="0.6238809125425984" transform="matrix(0.9999917594090418,0.004059693831917297,-0.004059693831917297,0.9999917594090418,328.18933722873453,232.02689467307755)" fill="#ff5c58"></use><use xlink:href="#bbburst-shape-4" width="15.30446126005482" opacity="0.7174718650111725" transform="matrix(0.9467447369617276,-0.3219850975360028,0.3219850975360028,0.9467447369617276,127.94020870109611,323.08360548908763)" fill="#00a19d"></use><use xlink:href="#bbburst-shape-12" width="46.3351649924417" opacity="0.29435757925223094" transform="matrix(0.7932614288324045,0.6088811916349298,-0.6088811916349298,0.7932614288324045,495.58835712329096,-183.27136216479676)" fill="none" stroke="#2c2891"></use><use xlink:href="#bbburst-shape-9" width="16.34276328735122" opacity="0.7496280435114459" transform="matrix(0.8451415763398037,-0.5345425295913054,0.5345425295913054,0.8451415763398037,-23.62769506582319,311.89278176467303)" fill="none" stroke="#ffbd9b"></use><use xlink:href="#bbburst-shape-5" width="20.34718960850815" opacity="0.6947361678294808" transform="matrix(0.8237741399022251,0.5669181302695736,-0.5669181302695736,0.8237741399022251,342.4870043542347,185.8229914542777)" fill="#ffa6d5"></use><use xlink:href="#bbburst-shape-3" width="13.806883385536665" opacity="0.7095179720173359" transform="matrix(0.7763039827781385,0.6303587282831893,-0.6303587282831893,0.7763039827781385,533.6899811680823,439.9108925565558)" fill="#2c2891"></use><use xlink:href="#bbburst-shape-5" width="49.44067215168737" opacity="-0.032370411855414005" transform="matrix(0.7830353968000052,-0.6219771437587224,0.6219771437587224,0.7830353968000052,457.96937169923405,-231.69326214648117)" fill="#ffbd9b"></use><use xlink:href="#bbburst-shape-9" width="10.415431776038105" opacity="0.7942326638145607" transform="matrix(0.9873011359951832,0.15885989696150773,-0.15885989696150773,0.9873011359951832,262.2920301220653,376.3663873948614)" fill="none" stroke="#ff5c58"></use><use xlink:href="#bbburst-shape-14" width="7.441408501835031" opacity="0.9693259002016642" transform="matrix(0.9999676384767741,0.008044998395513212,-0.008044998395513212,0.9999676384767741,19.49557076658975,376.7342850294754)" fill="none" stroke="#ffa6d5"></use><use xlink:href="#bbburst-shape-14" width="9.939965480583925" opacity="0.8867431170029526" transform="matrix(0.8270657322434752,-0.5621052166174623,0.5621052166174623,0.8270657322434752,-147.66557395965978,393.10661286382094)" fill="none" stroke="#00a19d"></use><use xlink:href="#bbburst-shape-8" width="12.937502038274118" opacity="0.8632140483063749" transform="matrix(0.9973535796183556,-0.07270376346828533,0.07270376346828533,0.9973535796183556,47.85368288966812,293.09900849815324)" fill="none" stroke="#ffa6d5"></use><use xlink:href="#bbburst-shape-9" width="23.985652799148717" opacity="0.5800077502927216" transform="matrix(0.9735574387671228,0.22844236345564284,-0.22844236345564284,0.9735574387671228,412.95066551935383,152.01822479693698)" fill="none" stroke="#2c2891"></use><use xlink:href="#bbburst-shape-10" width="9.13024515880798" opacity="0.903083206558611" transform="matrix(0.8047538565244192,-0.5936086508880026,0.5936086508880026,0.8047538565244192,-150.29353384257502,446.98653978143415)" fill="none" stroke="#ff5c58"></use><use xlink:href="#bbburst-shape-12" width="46.44302168785083" opacity="0.17169881372850293" transform="matrix(0.9196453342614508,-0.3927498684546495,0.3927498684546495,0.9196453342614508,483.2539535636305,-56.99161637554488)" fill="none" stroke="#2c2891"></use><use xlink:href="#bbburst-shape-5" width="8.239427344299662" opacity="0.9357585081756502" transform="matrix(0.9184729889795887,0.39548371460137294,-0.39548371460137294,0.9184729889795887,181.09694238873996,372.54560116241726)" fill="#2c2891"></use><use xlink:href="#bbburst-shape-11" width="32.96759000302147" opacity="0.2994937753323008" transform="matrix(0.9759012385928284,-0.21821267725084972,0.21821267725084972,0.9759012385928284,60.39643909787988,-268.24978629182067)" fill="none" stroke="#ffa6d5"></use><use xlink:href="#bbburst-shape-10" width="27.626035087294543" opacity="0.41102255922373676" transform="matrix(0.942159713791748,-0.3351642488509948,0.3351642488509948,0.942159713791748,172.95422777409794,-66.67604643861296)" fill="none" stroke="#2c2891"></use><use xlink:href="#bbburst-shape-2" width="36.845439411544724" opacity="0.2812423781343403" transform="matrix(0.998056038512682,-0.0623229009945135,0.0623229009945135,0.998056038512682,617.5196796563516,119.26037239849961)" fill="#ffa6d5"></use><use xlink:href="#bbburst-shape-14" width="17.94174085166017" opacity="0.6840116854690131" transform="matrix(0.89189611438285,0.4522403356057199,-0.4522403356057199,0.89189611438285,477.53831426808637,355.3347113948817)" fill="none" stroke="#00a19d"></use><use xlink:href="#bbburst-shape-11" width="19.188592416805736" opacity="0.5541776148005323" transform="matrix(0.7364019467927587,-0.6765442873602843,0.6765442873602843,0.7364019467927587,-185.1506446810373,75.66968269563625)" fill="none" stroke="#00a19d"></use><use xlink:href="#bbburst-shape-12" width="46.62984527764755" opacity="0.2268745717885614" transform="matrix(0.9967329643213146,-0.08076755434730563,0.08076755434730563,0.9967329643213146,329.004738444728,-267.5943801289026)" fill="none" stroke="#2c2891"></use><use xlink:href="#bbburst-shape-2" width="15.003939820761023" opacity="0.7893250172218395" transform="matrix(0.9795723600938291,-0.20109199720577078,0.20109199720577078,0.9795723600938291,107.67087966797902,331.06550690750566)" fill="#00a19d"></use><use xlink:href="#bbburst-shape-14" width="21.471260832032726" opacity="0.5834131429076593" transform="matrix(0.8103354764773448,-0.5859662239090531,0.5859662239090531,0.8103354764773448,40.54470288124213,177.044182959686)" fill="none" stroke="#ffa6d5"></use><use xlink:href="#bbburst-shape-10" width="14.145531597603792" opacity="0.6626894909040039" transform="matrix(0.9081998261846105,-0.41853682719474433,0.41853682719474433,0.9081998261846105,-147.99075964803876,103.36154424448597)" fill="none" stroke="#ffa6d5"></use><use xlink:href="#bbburst-shape-12" width="15.061846179419607" opacity="0.7355658076704074" transform="matrix(0.8988033865681448,-0.4383519958818871,0.4383519958818871,0.8988033865681448,81.76707537705437,426.77819144559686)" fill="none" stroke="#ffbd9b"></use><use xlink:href="#bbburst-shape-8" width="7.416932888705537" opacity="0.9051522123435726" transform="matrix(0.8576349302500526,-0.5142590071306359,0.5142590071306359,0.8576349302500526,-196.53461241056277,364.81276139764475)" fill="none" stroke="#ff5c58"></use><use xlink:href="#bbburst-shape-9" width="23.24601861642479" opacity="0.6459562366590917" transform="matrix(0.9974580560647301,0.07125606213908925,-0.07125606213908925,0.9974580560647301,310.5349422020183,202.2006920312606)" fill="none" stroke="#ff5c58"></use><use xlink:href="#bbburst-shape-10" width="32.91616794816767" opacity="0.2512789273914978" transform="matrix(0.782728808340488,-0.6223629267508466,0.6223629267508466,0.782728808340488,454.8040504321751,280.3044131864446)" fill="none" stroke="#ffbd9b"></use><use xlink:href="#bbburst-shape-5" width="54.4880098266967" opacity="0.24678235707548157" transform="matrix(0.8588478256753014,-0.5122308193898597,0.5122308193898597,0.8588478256753014,322.04393105495274,-43.848949071591335)" fill="#2c2891"></use><use xlink:href="#bbburst-shape-3" width="23.481759562182667" opacity="0.640929414300124" transform="matrix(0.9757276591568603,-0.2189875228324067,0.2189875228324067,0.9757276591568603,164.85681269722895,168.9106359190468)" fill="#00a19d"></use><use xlink:href="#bbburst-shape-13" width="27.473369947636705" opacity="0.5655273497251088" transform="matrix(0.7959089294819881,0.6054163657936873,-0.6054163657936873,0.7959089294819881,610.7947376938638,261.89705838758647)" fill="none" stroke="#ffa6d5"></use><use xlink:href="#bbburst-shape-5" width="16.8662828476237" opacity="0.5641851754722031" transform="matrix(0.9959801882212334,-0.08957379455396852,0.08957379455396852,0.9959801882212334,387.0951019965464,339.95914686951437)" fill="#00a19d"></use><use xlink:href="#bbburst-shape-12" width="22.143800932275248" opacity="0.5135288022092305" transform="matrix(0.9729719958205092,0.2309231373185785,-0.2309231373185785,0.9729719958205092,558.0947800045616,310.17188522950676)" fill="none" stroke="#ffbd9b"></use><use xlink:href="#bbburst-shape-4" width="14.387698110585953" opacity="0.8259166706011621" transform="matrix(0.9941394312626289,0.10810546336248056,-0.10810546336248056,0.9941394312626289,167.78066784166344,287.72728529322865)" fill="#ffa6d5"></use><use xlink:href="#bbburst-shape-3" width="15.435742646367789" opacity="0.6328084771929507" transform="matrix(0.7151316819017043,-0.6989897549610006,0.6989897549610006,0.7151316819017043,-261.6782759933925,152.94310299240067)" fill="#ffa6d5"></use><use xlink:href="#bbburst-shape-4" width="40.37229263177878" opacity="0.38580005421980124" transform="matrix(0.9970242124444596,-0.07708903812803188,0.07708903812803188,0.9970242124444596,204.1427509409491,-155.9340236798524)" fill="#00a19d"></use><use xlink:href="#bbburst-shape-5" width="17.558260792077085" opacity="0.6980454505331849" transform="matrix(0.9890420825944015,-0.14763386758237096,0.14763386758237096,0.9890420825944015,160.69094609392477,208.2015371647896)" fill="#ffa6d5"></use><use xlink:href="#bbburst-shape-3" width="19.013942436360043" opacity="0.64183367400334" transform="matrix(0.9990222010505948,-0.0442113312175166,0.0442113312175166,0.9990222010505948,325.25681818442007,337.42098996821903)" fill="#00a19d"></use><use xlink:href="#bbburst-shape-3" width="25.090703538734772" opacity="0.541715810904323" transform="matrix(0.8876343157366976,0.4605489349967543,-0.4605489349967543,0.8876343157366976,382.03917418228764,31.29289256373204)" fill="#ffa6d5"></use><use xlink:href="#bbburst-shape-12" width="8.773503418742997" opacity="0.937854037373983" transform="matrix(0.9685348647724837,0.24887791328309297,-0.24887791328309297,0.9685348647724837,156.58233189664128,401.11644888995187)" fill="none" stroke="#2c2891"></use><use xlink:href="#bbburst-shape-1" width="27.535869801906664" opacity="0.5177074977879372" transform="matrix(0.8754178825997211,0.4833668698045212,-0.4833668698045212,0.8754178825997211,464.38421759736013,52.75242546881958)" fill="#00a19d"></use><use xlink:href="#bbburst-shape-4" width="20.82949276351134" opacity="0.7415185883428236" transform="matrix(0.7445230170939876,0.6675967922460876,-0.6675967922460876,0.7445230170939876,430.7283332654564,301.82142920230183)" fill="#ffa6d5"></use><use xlink:href="#bbburst-shape-9" width="6.47312126328767" opacity="0.9384775506869805" transform="matrix(0.9869236042453572,0.16118870736920024,-0.16118870736920024,0.9869236042453572,111.84141831273327,369.60310370659585)" fill="none" stroke="#00a19d"></use><use xlink:href="#bbburst-shape-1" width="5.714022856220726" opacity="0.973638690664082" transform="matrix(0.8428641570085312,-0.5381263911297215,0.5381263911297215,0.8428641570085312,-192.34924659296553,457.011887987823)" fill="#ffbd9b"></use><use xlink:href="#bbburst-shape-2" width="38.48962262802561" opacity="0.17953604518023403" transform="matrix(0.99101974810866,-0.13371558943761197,0.13371558943761197,0.99101974810866,687.8920455527796,98.15794744190248)" fill="#ffbd9b"></use><use xlink:href="#bbburst-shape-2" width="29.374144695057673" opacity="0.2169336831030918" transform="matrix(0.9935349932031303,-0.11352628453735206,0.11352628453735206,0.9935349932031303,706.5589504855259,244.33433016714588)" fill="#ff5c58"></use><use xlink:href="#bbburst-shape-9" width="31.797186242973897" opacity="0.4242075514294179" transform="matrix(0.8421643561966166,-0.5392209168345924,0.5392209168345924,0.8421643561966166,-127.54045856119349,-95.22172927342555)" fill="none" stroke="#2c2891"></use><use xlink:href="#bbburst-shape-9" width="22.980863717635593" opacity="0.46742386890496046" transform="matrix(0.8734716913098461,-0.48687493720699665,0.48687493720699665,0.8734716913098461,323.0542532377509,385.7725383206184)" fill="none" stroke="#ffa6d5"></use><use xlink:href="#bbburst-shape-11" width="15.854243615068695" opacity="0.7083138985458997" transform="matrix(0.7192813837930453,-0.6947188574731233,0.6947188574731233,0.7192813837930453,-36.59862507196701,362.7081700722131)" fill="none" stroke="#00a19d"></use><use xlink:href="#bbburst-shape-14" width="32.5132690788803" opacity="0.505693452639911" transform="matrix(0.7222643091676977,-0.6916171395378432,0.6916171395378432,0.7222643091676977,173.170947128065,345.3667633079734)" fill="none" stroke="#2c2891"></use><use xlink:href="#bbburst-shape-3" width="6.124725285829355" opacity="0.9690052059855533" transform="matrix(0.7653832950397284,-0.6435747133582302,0.6435747133582302,0.7653832950397284,-252.484574066184,465.711436454368)" fill="#ff5c58"></use><use xlink:href="#bbburst-shape-6" width="39.12963083583836" opacity="0.4000744356094714" transform="matrix(0.9080976517051113,-0.41875846853247334,0.41875846853247334,0.9080976517051113,308.04310727000654,103.55580668751048)" fill="#2c2891"></use><use xlink:href="#bbburst-shape-6" width="45.1651770068176" opacity="0.3475028987576062" transform="matrix(0.989184745194526,0.14667494630795214,-0.14667494630795214,0.989184745194526,524.4231771330639,-32.020367478018045)" fill="#00a19d"></use><use xlink:href="#bbburst-shape-3" width="33.4084790081212" opacity="0.11927071744017814" transform="matrix(0.7580049818137665,0.6522487620114825,-0.6522487620114825,0.7580049818137665,1005.4234469557703,36.14487265652224)" fill="#00a19d"></use><use xlink:href="#bbburst-shape-10" width="6.764994756021226" opacity="0.9551749115502662" transform="matrix(0.7362163185780336,0.6767462835209421,-0.6767462835209421,0.7362163185780336,312.28317289438115,495.05792092719423)" fill="none" stroke="#ffa6d5"></use><use xlink:href="#bbburst-shape-1" width="50.28710459706929" opacity="0.21355363390460225" transform="matrix(0.9946669837887295,-0.10313869962643141,0.10313869962643141,0.9946669837887295,424.53026078485954,-209.72067110169115)" fill="#ffa6d5"></use><use xlink:href="#bbburst-shape-8" width="30.345257529931708" opacity="0.43701852290621623" transform="matrix(0.9470504519755855,0.32108478851051053,-0.32108478851051053,0.9470504519755855,529.6040885082236,36.47246545741751)" fill="none" stroke="#00a19d"></use><use xlink:href="#bbburst-shape-6" width="22.686721667829957" opacity="0.6024983624943747" transform="matrix(0.7387589808012074,-0.6739697087299705,0.6739697087299705,0.7387589808012074,-105.03461031905232,154.22869719357612)" fill="#ff5c58"></use><use xlink:href="#bbburst-shape-9" width="27.14844665577209" opacity="0.5409748047746741" transform="matrix(0.8420676629563613,-0.5393719041655878,0.5393719041655878,0.8420676629563613,-71.99379389051686,38.37857345062582)" fill="none" stroke="#ffbd9b"></use><use xlink:href="#bbburst-shape-10" width="45.092246391894065" opacity="0.2224741972240677" transform="matrix(0.7632164924095256,-0.6461428524050239,0.6461428524050239,0.7632164924095256,404.6198604334976,132.7720482800126)" fill="none" stroke="#ffbd9b"></use><use xlink:href="#bbburst-shape-5" width="13.839917609009197" opacity="0.5637830074198438" transform="matrix(0.8753646643569333,0.48346323996274376,-0.48346323996274376,0.8753646643569333,623.124670840535,427.36789895959464)" fill="#00a19d"></use><use xlink:href="#bbburst-shape-4" width="9.201376708046691" opacity="0.8226959651305685" transform="matrix(0.8491245965759517,0.5281925969660378,-0.5281925969660378,0.8491245965759517,249.39090234361504,285.6755338600967)" fill="#ffbd9b"></use><use xlink:href="#bbburst-shape-2" width="18.875556873458127" opacity="0.6876529239621634" transform="matrix(0.782455632183361,-0.6227063382241559,0.6227063382241559,0.782455632183361,-55.54708795435329,253.74910590671834)" fill="#2c2891"></use><use xlink:href="#bbburst-shape-8" width="20.00665521579861" opacity="0.6013039727741567" transform="matrix(0.9999944133925042,0.003342631266156107,-0.003342631266156107,0.9999944133925042,55.14559255267978,6.4124836845074356)" fill="none" stroke="#00a19d"></use><use xlink:href="#bbburst-shape-14" width="20.45391995650379" opacity="0.6413883741483795" transform="matrix(0.7970409669138926,-0.6039252412848524,0.6039252412848524,0.7970409669138926,90.16730736509862,372.9734021363654)" fill="none" stroke="#ffa6d5"></use><use xlink:href="#bbburst-shape-13" width="25.345582875884524" opacity="0.4345012130277385" transform="matrix(0.7633826564153244,-0.6459465302053126,0.6459465302053126,0.7633826564153244,232.67902413125705,240.04683355049787)" fill="none" stroke="#ffa6d5"></use><use xlink:href="#bbburst-shape-14" width="18.53239674295851" opacity="0.7499798079560003" transform="matrix(0.9986123361488344,-0.05266309990275313,0.05266309990275313,0.9986123361488344,192.9850447148693,288.61283967714706)" fill="none" stroke="#2c2891"></use><use xlink:href="#bbburst-shape-6" width="13.894749810984564" opacity="0.7677756383285741" transform="matrix(0.8618801221856759,0.5071120733932534,-0.5071120733932534,0.8618801221856759,428.2345308726083,431.91152149541887)" fill="#ffbd9b"></use><use xlink:href="#bbburst-shape-11" width="5.781659264875449" opacity="0.9564417248215515" transform="matrix(0.9735816076437963,0.2283393379549855,-0.2283393379549855,0.9735816076437963,125.92601514303382,387.48564773750763)" fill="none" stroke="#00a19d"></use><use xlink:href="#bbburst-shape-9" width="21.874483202862884" opacity="0.6445383334091863" transform="matrix(0.99932072837462,0.0368521619558306,-0.0368521619558306,0.99932072837462,132.44093344510398,68.34725737709994)" fill="none" stroke="#ff5c58"></use><use xlink:href="#bbburst-shape-10" width="15.202616847908676" opacity="0.6504000084102095" transform="matrix(0.7907617274617176,-0.6121240808706682,0.6121240808706682,0.7907617274617176,98.29993945915552,470.8217862168073)" fill="none" stroke="#ffbd9b"></use><use xlink:href="#bbburst-shape-14" width="41.170473770342554" opacity="0.12798409426515023" transform="matrix(0.8318934675034169,0.5549353644571063,-0.5549353644571063,0.8318934675034169,651.8998278479052,-292.8201439374553)" fill="none" stroke="#ffa6d5"></use><use xlink:href="#bbburst-shape-12" width="19.698159582126383" opacity="0.6777840427273295" transform="matrix(0.940527571356042,0.33971736417072534,-0.33971736417072534,0.940527571356042,417.6106873958909,282.00179690312075)" fill="none" stroke="#00a19d"></use><use xlink:href="#bbburst-shape-5" width="17.81321819095641" opacity="0.4975541176522824" transform="matrix(0.9142150000534766,-0.40522948273444,0.40522948273444,0.9142150000534766,-147.05391800846868,-63.987664349356464)" fill="#00a19d"></use><use xlink:href="#bbburst-shape-8" width="10.037761759251849" opacity="0.8942920880382756" transform="matrix(0.8880169785561609,-0.4598106629863936,0.4598106629863936,0.8880169785561609,-83.45550930527087,434.26443878761575)" fill="none" stroke="#ffa6d5"></use><use xlink:href="#bbburst-shape-14" width="34.14725295256165" opacity="0.34421445872688317" transform="matrix(0.8783089077778217,0.4780935708814018,-0.4780935708814018,0.8783089077778217,232.09043141065627,-212.8470223881379)" fill="none" stroke="#2c2891"></use><use xlink:href="#bbburst-shape-10" width="30.70725993898848" opacity="0.23403126396121332" transform="matrix(0.9915829904266967,0.1294726731648401,-0.1294726731648401,0.9915829904266967,800.5581070772905,346.40526248059604)" fill="none" stroke="#00a19d"></use><use xlink:href="#bbburst-shape-2" width="13.432714434145929" opacity="0.8590892194072438" transform="matrix(0.785861674004206,0.6184023199595122,-0.6184023199595122,0.785861674004206,349.707621567847,390.5575625389602)" fill="#2c2891"></use><use xlink:href="#bbburst-shape-12" width="6.3993062571872" opacity="0.9506225238314836" transform="matrix(0.8569901575298875,-0.5153327758806912,0.5153327758806912,0.8569901575298875,-179.49882810730875,419.1589690027633)" fill="none" stroke="#ffa6d5"></use><use xlink:href="#bbburst-shape-14" width="28.836851041347238" opacity="0.43569100602440336" transform="matrix(0.9768382657749056,0.2139789768128516,-0.2139789768128516,0.9768382657749056,635.0103699418498,376.2291217641552)" fill="none" stroke="#2c2891"></use><use xlink:href="#bbburst-shape-11" width="20.035994986149685" opacity="0.6041847491049976" transform="matrix(0.994132811987225,0.10816631698626264,-0.10816631698626264,0.994132811987225,418.9302858416436,311.641221766576)" fill="none" stroke="#ffbd9b"></use><use xlink:href="#bbburst-shape-10" width="27.195321523888666" opacity="0.39325616695421195" transform="matrix(0.9026265077003851,0.4304246596056116,-0.4304246596056116,0.9026265077003851,755.1059213941624,315.3530844299829)" fill="none" stroke="#ffa6d5"></use><use xlink:href="#bbburst-shape-10" width="26.142254324573575" opacity="0.4890677694232023" transform="matrix(0.8387229235074619,-0.5445584060347395,0.5445584060347395,0.8387229235074619,-100.83004814036643,-23.02145321168331)" fill="none" stroke="#ffa6d5"></use><use xlink:href="#bbburst-shape-10" width="7.508059083055952" opacity="0.928075918950849" transform="matrix(0.7282219226472333,0.6853413976814526,-0.6853413976814526,0.7282219226472333,281.37322934076604,434.9087833230038)" fill="none" stroke="#ff5c58"></use><use xlink:href="#bbburst-shape-9" width="15.910937868816143" opacity="0.8193995881026763" transform="matrix(0.9997923055864144,-0.02038003165359915,0.02038003165359915,0.9997923055864144,60.597576442424796,236.63640481889797)" fill="none" stroke="#00a19d"></use><use xlink:href="#bbburst-shape-9" width="11.518860912924344" opacity="0.6955947791728448" transform="matrix(0.984122431127354,0.17749095907112106,-0.17749095907112106,0.984122431127354,369.44938296993007,391.7861567276011)" fill="none" stroke="#00a19d"></use><use xlink:href="#bbburst-shape-12" width="15.175763576337605" opacity="0.7877610564720515" transform="matrix(0.9864576943905794,0.16401590525806423,-0.16401590525806423,0.9864576943905794,236.1962225944344,288.6625170231766)" fill="none" stroke="#2c2891"></use><use xlink:href="#bbburst-shape-3" width="28.470350777016208" opacity="0.2206289843625605" transform="matrix(0.9915246752431591,-0.12991850670304014,0.12991850670304014,0.9915246752431591,101.90472078654639,-355.77422431814955)" fill="#ffa6d5"></use><use xlink:href="#bbburst-shape-4" width="14.078315041637499" opacity="0.6929673218583541" transform="matrix(0.767866851683092,0.6406094739279903,-0.6406094739279903,0.767866851683092,265.45182057281556,181.6693836070251)" fill="#ff5c58"></use><use xlink:href="#bbburst-shape-13" width="18.85276901764392" opacity="0.553828187825474" transform="matrix(0.8091544122175833,0.587596066348999,-0.587596066348999,0.8091544122175833,258.63343935579644,25.721296657493838)" fill="none" stroke="#ff5c58"></use><use xlink:href="#bbburst-shape-2" width="17.420665615124687" opacity="0.7221775079909294" transform="matrix(0.9909863330691587,0.13396300858872331,-0.13396300858872331,0.9909863330691587,114.26685143658149,133.4104688643224)" fill="#2c2891"></use><use xlink:href="#bbburst-shape-4" width="24.205090600441586" opacity="0.5994694852538092" transform="matrix(0.9579348484430246,0.28698575946976795,-0.28698575946976795,0.9579348484430246,221.23833280340978,30.633262634181165)" fill="#00a19d"></use><use xlink:href="#bbburst-shape-11" width="9.711713089173601" opacity="0.863027248188278" transform="matrix(0.7710101755744713,-0.63682282399473,0.63682282399473,0.7710101755744713,-244.300824044778,358.3624723820216)" fill="none" stroke="#2c2891"></use><use xlink:href="#bbburst-shape-1" width="25.016520293989316" opacity="0.5207829047706751" transform="matrix(0.9706601996082213,0.24045535322909353,-0.24045535322909353,0.9706601996082213,425.2410492292888,72.26856168636203)" fill="#ffa6d5"></use><use xlink:href="#bbburst-shape-5" width="10.652335515852485" opacity="0.8074808185362587" transform="matrix(0.9976768431130879,0.06812427405780587,-0.06812427405780587,0.9976768431130879,37.47721838505568,208.67555866046166)" fill="#2c2891"></use><use xlink:href="#bbburst-shape-5" width="12.383246884027088" opacity="0.6756087608462186" transform="matrix(0.9971333597046974,-0.07566414582893684,0.07566414582893684,0.9971333597046974,284.98351093186926,357.83251335467605)" fill="#2c2891"></use><use xlink:href="#bbburst-shape-8" width="21.69181599841994" opacity="0.7105463566590844" transform="matrix(0.8909566863517252,-0.45408829873181444,0.45408829873181444,0.8909566863517252,-37.18200639737515,203.52904911168514)" fill="none" stroke="#ff5c58"></use><use xlink:href="#bbburst-shape-7" width="27.75398539383697" opacity="0.34817941616781567" transform="matrix(0.9498320034121851,-0.3127605558474321,0.3127605558474321,0.9498320034121851,440.1655549701908,124.17599127609714)" fill="#ffa6d5"></use><use xlink:href="#bbburst-shape-5" width="7.681585091714578" opacity="0.9167853653505643" transform="matrix(0.9539676497687101,0.2999095250150679,-0.2999095250150679,0.9539676497687101,198.88691710665455,407.06074929255766)" fill="#ffa6d5"></use><use xlink:href="#bbburst-shape-8" width="12.05962597539612" opacity="0.8371906300599607" transform="matrix(0.8167322777995827,-0.5770167990624756,0.5770167990624756,0.8167322777995827,-222.23483275139057,314.5374026537068)" fill="none" stroke="#00a19d"></use><use xlink:href="#bbburst-shape-11" width="15.684105325548858" opacity="0.6096077521516762" transform="matrix(0.7460138321507835,0.6659304485002188,-0.6659304485002188,0.7460138321507835,650.0850558610102,468.8078218982771)" fill="none" stroke="#00a19d"></use><use xlink:href="#bbburst-shape-10" width="17.314844552230333" opacity="0.7884053032047551" transform="matrix(0.8700579144688205,-0.4929495161476138,0.4929495161476138,0.8700579144688205,-53.65196977263821,308.07868113157565)" fill="none" stroke="#ff5c58"></use><use xlink:href="#bbburst-shape-11" width="9.141733877328948" opacity="0.8199586353895585" transform="matrix(0.9497258093878468,-0.3130828755818487,0.3130828755818487,0.9497258093878468,49.84310459766533,406.9002065091865)" fill="none" stroke="#2c2891"></use><use xlink:href="#bbburst-shape-3" width="38.78363716271784" opacity="0.3069520985276418" transform="matrix(0.7408379610960153,-0.6716837912285057,0.6716837912285057,0.7408379610960153,398.60906066101114,392.20672088913966)" fill="#ffa6d5"></use><use xlink:href="#bbburst-shape-8" width="15.238585016124137" opacity="0.6434286828622495" transform="matrix(0.7074610299003293,-0.7067523549110858,0.7067523549110858,0.7074610299003293,-212.65009120101,173.90129431496922)" fill="none" stroke="#00a19d"></use><use xlink:href="#bbburst-shape-9" width="31.264587354207404" opacity="0.37799088949960813" transform="matrix(0.9232105038241182,0.38429463387981094,-0.38429463387981094,0.9232105038241182,309.14167951024535,-173.8772496891021)" fill="none" stroke="#2c2891"></use><use xlink:href="#bbburst-shape-13" width="12.339222931640382" opacity="0.7939405914519011" transform="matrix(0.9867109862543215,0.1624851673385118,-0.1624851673385118,0.9867109862543215,111.11501794788367,204.9773755708739)" fill="none" stroke="#00a19d"></use><use xlink:href="#bbburst-shape-12" width="9.433999923025397" opacity="0.8833547299088043" transform="matrix(0.9558289383752486,0.29392352842949665,-0.29392352842949665,0.9558289383752486,132.1998425114942,301.2004217723994)" fill="none" stroke="#00a19d"></use><use xlink:href="#bbburst-shape-2" width="8.698936863637535" opacity="0.9250718933886733" transform="matrix(0.9647020881466709,-0.2633436559430523,0.2633436559430523,0.9647020881466709,-61.950382014851826,357.38799692628453)" fill="#ffbd9b"></use><use xlink:href="#bbburst-shape-6" width="15.252076733698395" opacity="0.7394252029998758" transform="matrix(0.9266986494318951,-0.37580528620696874,0.37580528620696874,0.9266986494318951,-57.06917024723441,191.69724956395254)" fill="#ffbd9b"></use><use xlink:href="#bbburst-shape-9" width="45.70704607600042" opacity="0.19105002671620797" transform="matrix(0.8317007775580051,0.5552241138580076,-0.5552241138580076,0.8317007775580051,500.61779012968725,-297.9381432766448)" fill="none" stroke="#2c2891"></use><use xlink:href="#bbburst-shape-14" width="33.73371090161359" opacity="0.30437775248032695" transform="matrix(0.9996847030118302,0.025109650816943954,-0.025109650816943954,0.9996847030118302,687.739924412496,361.29731743645334)" fill="none" stroke="#ffbd9b"></use><use xlink:href="#bbburst-shape-2" width="14.087833135104633" opacity="0.7818026018302062" transform="matrix(0.9750327308409591,-0.2220611937931117,0.2220611937931117,0.9750327308409591,-7.247855739717849,212.0888918586473)" fill="#ffa6d5"></use><use xlink:href="#bbburst-shape-8" width="9.188724103889754" opacity="0.9502459733959207" transform="matrix(0.9607498495386286,0.277416161410078,-0.277416161410078,0.9607498495386286,115.73237403141394,365.5256959625998)" fill="none" stroke="#ffa6d5"></use><use xlink:href="#bbburst-shape-11" width="10.323590712330454" opacity="0.8859050868530585" transform="matrix(0.9991608376716052,-0.040958765403464666,0.040958765403464666,0.9991608376716052,75.76977387785357,340.85572372009614)" fill="none" stroke="#ff5c58"></use><use xlink:href="#bbburst-shape-3" width="36.022039306344034" opacity="0.31821524335852225" transform="matrix(0.8101543812908735,-0.5862165798364986,0.5862165798364986,0.8101543812908735,113.6064955389561,-90.665709248137)" fill="#ffbd9b"></use><use xlink:href="#bbburst-shape-2" width="38.60993713068457" opacity="0.04596886771169728" transform="matrix(0.8014773978856014,-0.598025066931584,0.598025066931584,0.8014773978856014,490.4499094634755,-104.8244595728506)" fill="#ffa6d5"></use><use xlink:href="#bbburst-shape-9" width="45.130634886878255" opacity="0.3413908502608982" transform="matrix(0.9511389614406583,-0.3087631390395975,0.3087631390395975,0.9511389614406583,281.4184275042385,-75.65462614236645)" fill="none" stroke="#00a19d"></use><use xlink:href="#bbburst-shape-13" width="17.394520698604232" opacity="0.7904402687491516" transform="matrix(0.988552037640988,-0.15088031308242525,0.15088031308242525,0.988552037640988,51.70299735904436,234.54913633052126)" fill="none" stroke="#2c2891"></use><use xlink:href="#bbburst-shape-3" width="6.216994988397255" opacity="0.9878829686888272" transform="matrix(0.7091475448730323,-0.7050601106292644,0.7050601106292644,0.7091475448730323,-276.4807021977103,509.24701256751877)" fill="#2c2891"></use><use xlink:href="#bbburst-shape-4" width="47.350383048342096" opacity="0.24962760232451764" transform="matrix(0.9999402017737881,0.010935852806068532,-0.010935852806068532,0.9999402017737881,33.66641580517414,-348.69270709433545)" fill="#ffbd9b"></use><use xlink:href="#bbburst-shape-11" width="10.772671738361609" opacity="0.8761443413758744" transform="matrix(0.8763550198629425,-0.48166573384560124,0.48166573384560124,0.8763550198629425,-80.95326405734987,409.8841640884102)" fill="none" stroke="#ffa6d5"></use><use xlink:href="#bbburst-shape-9" width="27.190752369273106" opacity="0.42070086496736114" transform="matrix(0.9623426317884087,-0.2718393993566039,0.2718393993566039,0.9623426317884087,420.5410456880611,215.1644821806857)" fill="none" stroke="#ffa6d5"></use><use xlink:href="#bbburst-shape-13" width="21.951156813639347" opacity="0.636075306527113" transform="matrix(0.8187314427905421,0.5741766492867132,-0.5741766492867132,0.8187314427905421,445.1017475538979,179.7126933818775)" fill="none" stroke="#00a19d"></use><use xlink:href="#bbburst-shape-5" width="8.60750948971776" opacity="0.8469582840770296" transform="matrix(0.9567408829081308,-0.2909413737717112,0.2909413737717112,0.9567408829081308,31.810293273377894,403.5514487977203)" fill="#2c2891"></use><use xlink:href="#bbburst-shape-10" width="56.955325252616156" opacity="0.0629410615241568" transform="matrix(0.7762226545969603,-0.6304588729571884,0.6304588729571884,0.7762226545969603,304.19858531924353,-229.71354307429198)" fill="none" stroke="#ffbd9b"></use><use xlink:href="#bbburst-shape-12" width="39.314182638122226" opacity="0.348093046174035" transform="matrix(0.8457307152261477,-0.5336099299329695,0.5336099299329695,0.8457307152261477,390.2759459040141,271.8665499609364)" fill="none" stroke="#ffbd9b"></use><use xlink:href="#bbburst-shape-8" width="24.87634671459008" opacity="0.4998926060705533" transform="matrix(0.9969713063513308,0.07777026624694636,-0.07777026624694636,0.9969713063513308,90.69822091590183,-94.6545778071536)" fill="none" stroke="#ffa6d5"></use><use xlink:href="#bbburst-shape-11" width="17.162865735591478" opacity="0.5103636928237038" transform="matrix(0.9899294476250868,-0.14156160752368707,0.14156160752368707,0.9899294476250868,423.72561730527195,377.7590401848439)" fill="none" stroke="#00a19d"></use><use xlink:href="#bbburst-shape-5" width="27.794835726506157" opacity="0.45756866084382" transform="matrix(0.9394083482854716,0.34280016798648455,-0.34280016798648455,0.9394083482854716,649.1621776782156,283.44163307376425)" fill="#ff5c58"></use><use xlink:href="#bbburst-shape-8" width="30.541899738929928" opacity="0.44813468152512603" transform="matrix(0.7754763509622009,-0.6313766143106263,0.6313766143106263,0.7754763509622009,89.55837077888344,76.04378571626239)" fill="none" stroke="#ffbd9b"></use><use xlink:href="#bbburst-shape-14" width="17.83113437300579" opacity="0.5534362937157503" transform="matrix(0.9228974507290837,0.38504583550242233,-0.38504583550242233,0.9228974507290837,576.380936229709,309.09706756101855)" fill="none" stroke="#2c2891"></use><use xlink:href="#bbburst-shape-12" width="10.691305082758639" opacity="0.8524157737144367" transform="matrix(0.9890219300861876,0.14776881202944142,-0.14776881202944142,0.9890219300861876,182.9504629741291,332.11672090831127)" fill="none" stroke="#00a19d"></use><use xlink:href="#bbburst-shape-13" width="13.63328711096206" opacity="0.7600986473678539" transform="matrix(0.9128719152183337,-0.40824608559741454,0.40824608559741454,0.9128719152183337,-112.01514562793145,204.72700523922282)" fill="none" stroke="#2c2891"></use><use xlink:href="#bbburst-shape-2" width="30.0563840642179" opacity="0.5845247677383685" transform="matrix(0.9745490888333024,0.22417420336466043,-0.22417420336466043,0.9745490888333024,307.06099224301136,62.18593590472733)" fill="#ffa6d5"></use><use xlink:href="#bbburst-shape-7" width="18.94829693795233" opacity="0.6805445495919529" transform="matrix(0.8329605440287795,0.5533323884350886,-0.5533323884350886,0.8329605440287795,305.7905166440626,155.73070688857558)" fill="#ffa6d5"></use><use xlink:href="#bbburst-shape-12" width="35.030347746213074" opacity="0.45854560582511816" transform="matrix(0.992525968604064,-0.12203360867631811,0.12203360867631811,0.992525968604064,121.49616447277774,-102.81483225291447)" fill="none" stroke="#ffa6d5"></use><use xlink:href="#bbburst-shape-8" width="13.882085148308368" opacity="0.6874798865389575" transform="matrix(0.9776578108138073,-0.21020277104442198,0.21020277104442198,0.9776578108138073,-37.19917240130327,102.5183680661329)" fill="none" stroke="#00a19d"></use><use xlink:href="#bbburst-shape-8" width="11.237511200936124" opacity="0.8568763403566357" transform="matrix(0.9463845023921403,0.3230423712641749,-0.3230423712641749,0.9463845023921403,187.4686811538151,291.3995373299038)" fill="none" stroke="#00a19d"></use><use xlink:href="#bbburst-shape-11" width="8.847542896621786" opacity="0.9130357528843325" transform="matrix(0.8221903212250059,0.5692126805368286,-0.5692126805368286,0.8221903212250059,257.61847272054905,388.26152278977804)" fill="none" stroke="#2c2891"></use><use xlink:href="#bbburst-shape-11" width="15.012303377882748" opacity="0.821300224507397" transform="matrix(0.9727437280372437,0.23188281429248875,-0.23188281429248875,0.9727437280372437,242.9193599615327,324.4064580721386)" fill="none" stroke="#2c2891"></use><use xlink:href="#bbburst-shape-6" width="9.378455885406053" opacity="0.9120430086520326" transform="matrix(0.7701840122622555,-0.6378217519461168,0.6378217519461168,0.7701840122622555,-188.5473922449931,441.9135808328195)" fill="#ffa6d5"></use><use xlink:href="#bbburst-shape-10" width="13.288194523617731" opacity="0.8175749374962019" transform="matrix(0.9210748324606288,0.3893856096565776,-0.3893856096565776,0.9210748324606288,324.9863477894078,378.6774486822683)" fill="none" stroke="#ff5c58"></use><use xlink:href="#bbburst-shape-2" width="14.083186466233904" opacity="0.5957818369271959" transform="matrix(0.9927443055167677,0.12024451698115166,-0.12024451698115166,0.9927443055167677,60.41124179929858,-1.694309376860474)" fill="#2c2891"></use><use xlink:href="#bbburst-shape-4" width="10.740756493054729" opacity="0.7210942913048906" transform="matrix(0.8937463958863384,0.44857260264106685,-0.44857260264106685,0.8937463958863384,199.8506976001051,162.33855194590797)" fill="#ffa6d5"></use><use xlink:href="#bbburst-shape-10" width="9.858572359980089" opacity="0.899282958569106" transform="matrix(0.9456220968185146,0.32526735158720715,-0.32526735158720715,0.9456220968185146,184.28193059290166,338.4029765820183)" fill="none" stroke="#ffbd9b"></use><use xlink:href="#bbburst-shape-11" width="14.428871265973815" opacity="0.7784690085981688" transform="matrix(0.9998137014819953,0.01930187371400765,-0.01930187371400765,0.9998137014819953,19.132518256112935,179.00238099604616)" fill="none" stroke="#2c2891"></use><use xlink:href="#bbburst-shape-14" width="10.605322706150282" opacity="0.7488762069393574" transform="matrix(0.9700964935806053,-0.24271957717212386,0.24271957717212386,0.9700964935806053,-82.16032827603874,162.94170378640342)" fill="none" stroke="#ffa6d5"></use><use xlink:href="#bbburst-shape-11" width="11.677619620527295" opacity="0.734985322790983" transform="matrix(0.9357940067070537,-0.35254726918692586,0.35254726918692586,0.9357940067070537,111.8438329050303,368.6703559805291)" fill="none" stroke="#ffa6d5"></use><use xlink:href="#bbburst-shape-6" width="11.519625354506102" opacity="0.8496917704830799" transform="matrix(0.9998538496016833,0.017096181933237226,-0.017096181933237226,0.9998538496016833,44.11157267797339,255.94344165876663)" fill="#2c2891"></use><use xlink:href="#bbburst-shape-3" width="8.908620072345869" opacity="0.8716653329885988" transform="matrix(0.990350063041101,-0.13858842893433584,0.13858842893433584,0.990350063041101,67.5683253316721,389.428221542286)" fill="#ffa6d5"></use><use xlink:href="#bbburst-shape-4" width="26.060902496816094" opacity="0.37189131052709856" transform="matrix(0.9393158229956016,0.34305361777730287,-0.34305361777730287,0.9393158229956016,751.5485087642475,375.95780037759806)" fill="#00a19d"></use></svg>